<svg xmlns="http://www.w3.org/2000/svg" width="67" height="65" viewBox="0 0 67 65"><defs><clipPath id="dfjwa"><path fill="#fff" d="M0 65V0h67v65zm1.816-32.5C1.816 49.895 16.12 64 33.764 64S65.71 49.895 65.71 32.5C65.71 15.102 51.408 1 33.764 1S1.816 15.102 1.816 32.5z"/></clipPath></defs><g><g><path d="M33.764 1C51.408 1 65.71 15.102 65.71 32.5c0 17.396-14.303 31.5-31.947 31.5S1.816 49.895 1.816 32.5C1.816 15.102 16.12 1 33.764 1z"/><path fill="none" stroke="#1275b9" stroke-linecap="round" stroke-linejoin="round" stroke-miterlimit="20" stroke-width="2" d="M33.764 1C51.408 1 65.71 15.102 65.71 32.5c0 17.396-14.303 31.5-31.947 31.5S1.816 49.895 1.816 32.5C1.816 15.102 16.12 1 33.764 1z" clip-path="url(&quot;#dfjwa&quot;)"/></g><g><path fill="#1275b9" d="M40.266 47.975h-12.53c-2.632 0-4.772-2.224-4.772-4.958V22.944c0-2.734 2.14-4.958 4.771-4.958h12.531c2.631 0 4.772 2.224 4.772 4.958v20.073c0 2.734-2.14 4.958-4.772 4.958zm-12.53-27.979c-1.565 0-2.837 1.322-2.837 2.948v20.073c0 1.626 1.272 2.948 2.836 2.948h12.531c1.565 0 2.837-1.322 2.837-2.948V22.944c0-1.626-1.272-2.948-2.837-2.948zM34 44.818c-.533 0-.967-.45-.967-1.005 0-.555.434-1.005.967-1.005.533 0 .968.45.968 1.005 0 .555-.435 1.005-.968 1.005zm.968-21.387h-1.935c-.534 0-.968-.45-.968-1.005 0-.556.434-1.006.968-1.006h1.935c.534 0 .967.45.967 1.006 0 .555-.433 1.005-.967 1.005z"/></g></g></svg>